# xmcd
#
# Track frame offsets:
# 150
# 4935
# 15147
# 26177
# 36847
# 47895
# 58682
# 66870
# 78272
# 86677
# 97942
# 110225
# 118375
# 131775
#
# Disc length: 1854 seconds
#
#
# Revision: 0
# Processed by: cddbd v1.5.2PL0 Copyright (c) Steve Scherf et al.
# Submitted via: FreeRIP 2.951 
#
DISCID=bc073c0e
DTITLE=Sons of the Pioneers - Blue Prairie
DYEAR=2001
DGENRE=Country
TTITLE0=Tumbling Tumbleweeds
TTITLE1=Song of the Bandit
TTITLE2=Listen to the Mockingbird
TTITLE3=Cimarron
TTITLE4=If You Would Only Be Mine
TTITLE5=Sierra Nevada
TTITLE6=Saddle Up
TTITLE7=Chant of the Plains
TTITLE8=You Ain't Heard Nothing 'Til You Hear Him Roar
TTITLE9=Blue Prairie
TTITLE10=Yippi Yi Your Troubles Away
TTITLE11=Song of the Trail
TTITLE12=Tumbleweed Trail
TTITLE13=Closing Theme
EXTD=The U.S. Treasury Guest Star Shows
EXTT0=
EXTT1=
EXTT2=
EXTT3=
EXTT4=
EXTT5=
EXTT6=
EXTT7=
EXTT8=
EXTT9=
EXTT10=
EXTT11=
EXTT12=
EXTT13=
PLAYORDER=
